<?xml version="1.0" encoding="UTF-8" standalone="no"?>
<svg
   xmlns:dc="http://purl.org/dc/elements/1.1/"
   xmlns:cc="http://creativecommons.org/ns#"
   xmlns:rdf="http://www.w3.org/1999/02/22-rdf-syntax-ns#"
   xmlns:svg="http://www.w3.org/2000/svg"
   xmlns="http://www.w3.org/2000/svg"
   xmlns:sodipodi="http://sodipodi.sourceforge.net/DTD/sodipodi-0.dtd"
   xmlns:inkscape="http://www.inkscape.org/namespaces/inkscape"
   viewBox="0 0 570.72601 270.0798"
   version="1.1"
   id="svg6"
   sodipodi:docname="sonic-screech.svg"
   width="570.72601"
   height="270.0798"
   inkscape:version="1.0.2-2 (e86c870879, 2021-01-15)">
  <metadata
     id="metadata12">
    <rdf:RDF>
      <cc:Work
         rdf:about="">
        <dc:format>image/svg+xml</dc:format>
        <dc:type
           rdf:resource="http://purl.org/dc/dcmitype/StillImage" />
        <dc:title></dc:title>
      </cc:Work>
    </rdf:RDF>
  </metadata>
  <defs
     id="defs10" />
  <sodipodi:namedview
     pagecolor="#ffffff"
     bordercolor="#666666"
     borderopacity="1"
     objecttolerance="10"
     gridtolerance="10"
     guidetolerance="10"
     inkscape:pageopacity="0"
     inkscape:pageshadow="2"
     inkscape:window-width="1920"
     inkscape:window-height="991"
     id="namedview8"
     showgrid="false"
     fit-margin-bottom="50"
     lock-margins="true"
     fit-margin-top="50"
     fit-margin-left="50"
     fit-margin-right="50"
     inkscape:zoom="1.6367188"
     inkscape:cx="262.04"
     inkscape:cy="184.50149"
     inkscape:window-x="-9"
     inkscape:window-y="-9"
     inkscape:window-maximized="1"
     inkscape:current-layer="svg6" />
  <path
     d="M 183.72,50.000448 C 107.322,50.213448 64.857,114.55745 50,196.55545 c 20.554,-27.42 86.13,-18.87 95.723,14.615 17.89,-33.31 64.53,-33.637 90.066,-20.646 -15.146,-11.61 -22.89,-32.173 -25.436,-53.133 -0.136,-1.114 -0.248,-2.236 -0.355,-3.358 -23.93,-19.16 -33.733,-47.772002 -10.546,-83.205002 -5.397,-0.57 -10.642,-0.84 -15.735,-0.826 z m 203.29,0 c -5.093,-0.013 -10.338,0.257 -15.734,0.827 24.394,37.278 12.274,67.006002 -14.397,86.120002 -0.013,0.1 -0.02,0.202 -0.032,0.302 -2.648,21.376 -10.735,42.16 -25.974,54.41 0.058,0.354 0.09,0.71 0.138,1.064 24.368,-15.136 75.143,-16.652 93.992,18.445 9.593,-33.486 75.17,-42.036 95.723,-14.616 C 505.87,114.55645 463.407,50.212448 387.01,50.000448 Z m -151.56,35.305 c -5.98,13.263 -8.675,32.293002 -6.543,49.832002 2.618,21.544 12.048,39.256 24.44,44.238 l 7.546,3.033 -1.96,7.89 c 0.78199,29.0472 30.3988,39.07181 48.18,20.061 5.382,-5.962 7.3,-12.235 4.475,-18.935 l -3.183,-7.547 7.066,-4.145 c 11.193,-6.563 20.326,-24.554 22.83,-44.778 2.063,-16.65 -0.46,-34.08 -6.596,-46.297002 -17.747,13.423002 -29.114,37.777002 -39.727,54.860002 l -8.773,14.12 -7.502,-14.835 c -8.5,-16.806 -22.957,-42.860002 -40.252,-57.496002 z"
     fill="#000000"
     fill-opacity="1"
     id="path2"
     sodipodi:nodetypes="cccccccccccccccccccccccccccccccccc" />
</svg>
