<?xml version="1.0" encoding="UTF-8" standalone="no"?>
<svg
   xmlns:dc="http://purl.org/dc/elements/1.1/"
   xmlns:cc="http://creativecommons.org/ns#"
   xmlns:rdf="http://www.w3.org/1999/02/22-rdf-syntax-ns#"
   xmlns:svg="http://www.w3.org/2000/svg"
   xmlns="http://www.w3.org/2000/svg"
   xmlns:sodipodi="http://sodipodi.sourceforge.net/DTD/sodipodi-0.dtd"
   xmlns:inkscape="http://www.inkscape.org/namespaces/inkscape"
   viewBox="0 0 512 512"
   style="height: 512px; width: 512px;"
   version="1.1"
   id="svg8"
   sodipodi:docname="female-vampire.svg"
   inkscape:version="1.0.2-2 (e86c870879, 2021-01-15)">
  <metadata
     id="metadata14">
    <rdf:RDF>
      <cc:Work
         rdf:about="">
        <dc:format>image/svg+xml</dc:format>
        <dc:type
           rdf:resource="http://purl.org/dc/dcmitype/StillImage" />
      </cc:Work>
    </rdf:RDF>
  </metadata>
  <defs
     id="defs12" />
  <sodipodi:namedview
     pagecolor="#ffffff"
     bordercolor="#666666"
     borderopacity="1"
     objecttolerance="10"
     gridtolerance="10"
     guidetolerance="10"
     inkscape:pageopacity="0"
     inkscape:pageshadow="2"
     inkscape:window-width="1920"
     inkscape:window-height="991"
     id="namedview10"
     showgrid="false"
     inkscape:zoom="1.6367188"
     inkscape:cx="285.86708"
     inkscape:cy="217.30469"
     inkscape:window-x="-9"
     inkscape:window-y="-9"
     inkscape:window-maximized="1"
     inkscape:current-layer="svg8" />
  <path
     id="path2"
     style="fill:#000000;fill-opacity:1"
     d="M 1.8320312 0.61132812 L 1.8320312 512.61133 L 513.83203 512.61133 L 513.83203 0.61132812 L 1.8320312 0.61132812 z M 256 13.5 C 306.1 13.5 343.19922 31.809062 369.19922 61.289062 C 395.29922 90.769063 410.60078 130.7 420.80078 174.5 C 439.00078 252.7 440.90078 344.39961 452.30078 413.09961 C 443.80078 400.49961 435.89961 387.9 429.09961 376.5 C 421.59961 313.1 417.69922 240.7 403.19922 178.5 C 393.39922 136.3 378.70078 99.230937 355.80078 73.210938 C 332.80078 47.190938 301.9 31.5 256 31.5 C 210.1 31.5 179.19922 47.190937 156.19922 73.210938 C 133.29922 99.230937 118.60078 136.3 108.80078 178.5 C 94.290781 240.7 90.490625 313.10039 82.890625 376.40039 C 76.090625 387.80039 68.189453 400.39961 59.689453 413.09961 C 70.989453 344.29961 73.089453 252.7 91.189453 174.5 C 101.39945 130.7 116.70078 90.769062 142.80078 61.289062 C 168.80078 31.809062 205.9 13.5 256 13.5 z M 192 70.5 L 192 102.5 L 218 86.5 L 224 118.5 L 256 102.5 L 288 118.5 L 294 86.5 L 320 102.5 L 320 70.5 L 362 118.5 L 336 102.5 L 352 134.5 L 320 118.5 L 336 150.5 L 304 134.5 L 304 166.5 L 272 150.5 L 256 182.5 L 240 150.5 L 208 166.5 L 208 134.5 L 176 150.5 L 192 118.5 L 160 134.5 L 176 102.5 L 150 118.5 L 192 70.5 z M 153.30078 241.5 L 184.59961 241.5 L 153.69922 251.80078 C 153.49922 248.40078 153.40078 245 153.30078 241.5 z M 197.69922 241.5 L 314.30078 241.5 L 267 273 L 277 288 L 294.69922 276.19922 C 297.39922 283.49922 305.9 288.59961 315.5 288.59961 C 327.5 288.59961 337.19922 280.90039 337.19922 271.40039 C 337.19922 268.30039 336.19922 265.29922 334.19922 262.69922 L 356.80078 270.19922 C 351.30078 321.09922 335.19961 359.10078 316.59961 385.30078 C 305.19961 401.50078 292.90039 413.30078 281.90039 420.80078 C 270.90039 428.40078 261 431.5 256 431.5 C 251 431.5 241.09961 428.40078 230.09961 420.80078 C 219.09961 413.30078 206.80039 401.50078 195.40039 385.30078 C 176.80039 359.10078 160.69922 321.09922 155.19922 270.19922 L 177.80078 262.69922 C 175.80078 265.29922 174.80078 268.30039 174.80078 271.40039 C 174.80078 280.90039 184.5 288.59961 196.5 288.59961 C 206.1 288.59961 214.60078 283.49922 217.30078 276.19922 L 235 288 L 245 273 L 197.69922 241.5 z M 327.40039 241.5 L 358.69922 241.5 C 358.59922 245 358.50078 248.40078 358.30078 251.80078 L 327.40039 241.5 z M 190.59961 258.40039 L 190.69922 258.40039 L 203.40039 266.90039 L 203.40039 267.19922 C 203.40039 273.89922 200.00078 279.30078 195.80078 279.30078 C 191.60078 279.30078 188.19922 273.89922 188.19922 267.19922 C 188.19922 263.89922 189.09961 260.70039 190.59961 258.40039 z M 321.30078 258.40039 L 321.40039 258.40039 C 322.90039 260.70039 323.80078 263.89922 323.80078 267.19922 C 323.80078 273.89922 320.39922 279.30078 316.19922 279.30078 C 311.99922 279.30078 308.59961 273.89922 308.59961 267.19922 L 308.59961 266.90039 L 321.30078 258.40039 z M 224 328.5 C 224 328.5 244.1 344.5 256 344.5 C 267.9 344.5 288 328.5 288 328.5 L 224 328.5 z M 114.30078 357.59961 L 121.59961 364.90039 C 166.49961 409.80039 211.20039 454.5 242.40039 498.5 C 188.10039 466 115.99906 453.99922 34.289062 475.69922 C 45.789062 463.09922 56.790625 448.59922 67.390625 433.69922 C 87.490625 405.19922 104.30078 376.29961 114.30078 357.59961 z M 397.69922 357.59961 C 407.69922 376.29961 424.49961 405.19922 444.59961 433.69922 C 455.09961 448.59922 466.19922 463.09922 477.69922 475.69922 C 395.99922 453.99922 323.89961 466 269.59961 498.5 C 300.79961 454.5 345.50039 409.80039 390.40039 364.90039 L 397.69922 357.59961 z M 256 360.5 C 243.5 360.5 232.10039 363.2 226.90039 367.5 L 216 367.5 L 216 385.5 L 224.5 385.5 L 232 412.5 L 244.09961 385.5 L 267.90039 385.5 L 280 412.5 L 287.5 385.5 L 296 385.5 L 296 367.5 L 285.09961 367.5 C 279.89961 363.2 268.5 360.5 256 360.5 z " />
  <g
     class=""
     transform="translate(0,0)"
     id="g6"
     style="" />
</svg>
