<?xml version="1.0" encoding="UTF-8" standalone="no"?>
<svg
   xmlns:dc="http://purl.org/dc/elements/1.1/"
   xmlns:cc="http://creativecommons.org/ns#"
   xmlns:rdf="http://www.w3.org/1999/02/22-rdf-syntax-ns#"
   xmlns:svg="http://www.w3.org/2000/svg"
   xmlns="http://www.w3.org/2000/svg"
   xmlns:sodipodi="http://sodipodi.sourceforge.net/DTD/sodipodi-0.dtd"
   xmlns:inkscape="http://www.inkscape.org/namespaces/inkscape"
   viewBox="0 0 512 512"
   style="height: 512px; width: 512px;"
   version="1.1"
   id="svg6"
   sodipodi:docname="pointy-sword.svg"
   inkscape:version="1.0.2-2 (e86c870879, 2021-01-15)">
  <metadata
     id="metadata12">
    <rdf:RDF>
      <cc:Work
         rdf:about="">
        <dc:format>image/svg+xml</dc:format>
        <dc:type
           rdf:resource="http://purl.org/dc/dcmitype/StillImage" />
      </cc:Work>
    </rdf:RDF>
  </metadata>
  <defs
     id="defs10" />
  <sodipodi:namedview
     pagecolor="#ffffff"
     bordercolor="#666666"
     borderopacity="1"
     objecttolerance="10"
     gridtolerance="10"
     guidetolerance="10"
     inkscape:pageopacity="0"
     inkscape:pageshadow="2"
     inkscape:window-width="1920"
     inkscape:window-height="991"
     id="namedview8"
     showgrid="false"
     inkscape:zoom="1.6367188"
     inkscape:cx="256"
     inkscape:cy="229.72792"
     inkscape:window-x="-9"
     inkscape:window-y="-9"
     inkscape:window-maximized="1"
     inkscape:current-layer="svg6" />
  <path
     d="M 45.95,14.553 C 26.57,15.363 15.356,25.91 15.668,44.836 l 19.768,30.78 c 4.43,-1.213 9.36,-3.838 14.248,-7.335 l 42.474,59.935 c -17.018,20.83 -31.258,44.44 -42.71,70.836 l 26.55,26.552 c 11.275,-23.6 24.634,-44.826 39.918,-63.864 L 326.736,459.215 493.543,492.428 460.33,325.62 162.78,114.745 c 19.907,-16.108 41.842,-29.91 65.652,-41.578 L 201.879,46.617 C 174.673,58.42 150.437,73.193 129.144,90.909 L 69.39,48.56 c 3.443,-4.823 6.062,-9.735 7.342,-14.242 L 45.952,14.553 Z m 99.89,114.921 222.224,196.368 25.645,66.75 -66.75,-25.645 L 130.6,144.734 c 4.91,-5.278 9.995,-10.36 15.238,-15.26 z"
     fill="#000000"
     fill-opacity="1"
     id="path2"
     sodipodi:nodetypes="cccccccccccccccccccccccccc" />
</svg>
