<svg xmlns="http://www.w3.org/2000/svg" style="height:512px;width:512px" viewBox="110 90 320 290"><path d="M268.344 95.97c-70.046 1.018-124.938 47.628-124.938 102.155 0 25.662 12.01 49.232 32.188 67.438l2.937 2.625.126 3.937 2.375 61.5c4.54 2.58 14.774 7.882 29.75 12.625v-40.72h18.69v45.626c10.157 2.127 21.678 3.707 34.405 4.188v-42.156h18.688v42.03c13.336-.665 25.14-2.53 35.312-4.937v-44.75h18.688v39.25c11.83-4.243 19.824-8.66 23.656-10.967l1.78-60.938.125-4.03 3-2.69c20.67-18.317 32.78-41.973 32.78-67.936 0-55.138-56.05-102.25-127.25-102.25h-2.31zm-77.344 89c23.367-.295 58.375 18.53 58.375 18.53 0 21.772-17.665 39.438-39.438 39.438-21.79 0-39.406-17.666-39.406-39.438.418-13.68 9.058-18.388 20.47-18.53zm159.375 0c11.412.142 20.052 4.85 20.47 18.53 0 21.772-17.635 39.438-39.408 39.438-21.772 0-39.437-17.666-39.437-39.438 0 0 35.008-18.825 58.375-18.53zm-79.75 48.25 20.344 45.405h-40.69l20.345-45.406z" fill="#000000"/></svg>