<?xml version="1.0" encoding="UTF-8" standalone="no"?>
<svg
   xmlns:dc="http://purl.org/dc/elements/1.1/"
   xmlns:cc="http://creativecommons.org/ns#"
   xmlns:rdf="http://www.w3.org/1999/02/22-rdf-syntax-ns#"
   xmlns:svg="http://www.w3.org/2000/svg"
   xmlns="http://www.w3.org/2000/svg"
   xmlns:sodipodi="http://sodipodi.sourceforge.net/DTD/sodipodi-0.dtd"
   xmlns:inkscape="http://www.inkscape.org/namespaces/inkscape"
   viewBox="0 0 512 512"
   style="height: 512px; width: 512px;"
   version="1.1"
   id="svg6"
   sodipodi:docname="wizard-face.svg"
   inkscape:version="1.0.2-2 (e86c870879, 2021-01-15)">
  <metadata
     id="metadata12">
    <rdf:RDF>
      <cc:Work
         rdf:about="">
        <dc:format>image/svg+xml</dc:format>
        <dc:type
           rdf:resource="http://purl.org/dc/dcmitype/StillImage" />
      </cc:Work>
    </rdf:RDF>
  </metadata>
  <defs
     id="defs10" />
  <sodipodi:namedview
     pagecolor="#ffffff"
     bordercolor="#666666"
     borderopacity="1"
     objecttolerance="10"
     gridtolerance="10"
     guidetolerance="10"
     inkscape:pageopacity="0"
     inkscape:pageshadow="2"
     inkscape:window-width="1101"
     inkscape:window-height="981"
     id="namedview8"
     showgrid="false"
     inkscape:zoom="0.87705101"
     inkscape:cx="227.08035"
     inkscape:cy="168.46758"
     inkscape:window-x="-8"
     inkscape:window-y="0"
     inkscape:window-maximized="0"
     inkscape:current-layer="svg6" />
  <g
     id="g854"
     transform="translate(2.2803691,-7.9812917)">
    <path
       d="m 122.42055,242.14018 c -4.7,1.3 -9.4,2.6 -14,4.1 1,19.9 0.6,47.6 11.6,64.5 h 2.4 z m 274,0 v 68.6 h 2.4 c 10.5,-20.7 11.3,-41.8 11.6,-64.5 -4.6,-1.5 -9.3,-2.8 -14,-4.1 z m -255.9,22.6 c -0.3,18.8 2,39.5 6.2,55.7 21.1,-14.1 41.9,-25.7 64.7,-25.7 3.2,0 6.4,0.2 9.4,0.4 l 5.2,-15.7 c -5.6,5.7 -12.9,8.9 -23.2,8.5 -25.2,-0.8 -33.9,-11.1 -37.5,-23.2 z m 109.4,0 -12.4,37.2 21.9,27.4 21.9,-27.4 -12.4,-37.2 z m 103.6,0 c -3.6,12.1 -12.3,22.4 -37.5,23.2 -10.3,0.4 -17.6,-2.8 -23.2,-8.5 l 5.2,15.7 c 3.1,-0.3 6.3,-0.4 9.4,-0.4 22.8,0 43.6,11.6 64.7,25.7 4.4,-20.1 6.8,-37.6 6.2,-55.7 z m -142.1,48 c -20,0 -43,14.5 -68.9,32.4 -19.2,13.3 -39.9,28.1 -63.299996,38.4 28.599996,6.1 65.799996,4.8 98.199996,-2.6 21.3,-4.8 40.5,-12.1 53.7,-20.5 8.5,-5.5 14.1,-11.1 17,-16.4 l -24.2,-30.3 c -3.7,-0.6 -7.9,-1 -12.5,-1 z m 96,0 c -4.6,0 -8.8,0.4 -12.5,1 l -24.2,30.3 c 2.9,5.3 8.5,10.9 17,16.4 13.2,8.4 32.4,15.7 53.7,20.5 32.4,7.4 69.6,8.7 98.2,2.6 -23.4,-10.3 -44.1,-25.1 -63.3,-38.4 -25.9,-17.9 -48.9,-32.4 -68.9,-32.4 z m -48,46.7 c -4.6,5.7 -10.6,10.8 -17.4,15.3 h 34.8 c -6.8,-4.5 -12.8,-9.6 -17.4,-15.3 z m -56.7,33.3 c -6.9,2.2 -14,4.1 -21.3,5.8 -9.5,2.2 -19.2,3.9 -28.9,5.1 6.1,19.6 14.1,39.5 23,58.2 l 0.1,0.2 c 4.3,-6.7 9.4,-13.1 13.5,-19.8 -2.4,13.9 -3.3,27.9 -2.3,41.8 1.7,3.3 3.5,6.5 5.3,9.7 h 134.6 c 3.6,-6.3 7,-12.7 10.3,-19.2 5.4,-21.9 3.9,-42.8 5.4,-64.2 3.1,11.5 6.1,23 8.5,34.7 5.8,-13.6 11.1,-27.6 15.4,-41.4 -9.7,-1.2 -19.4,-2.9 -28.9,-5.1 -7.3,-1.7 -14.4,-3.6 -21.3,-5.8 z"
       fill="#000000"
       fill-opacity="1"
       id="path2"
       sodipodi:nodetypes="ccccccccccccscccccccccccccccscccsccccccssccccccscccccccccccccccccccc" />
    <path
       d="m 199.80981,39.021694 c -2.435,0.0054 -4.816,0.401918 -7.117,1.284756 -18.365,7.051973 -38.59,99.44402 -50.16,126.54817 45.64,10.17221 87.106,12.69877 115.314,12.59829 28.21,-0.0997 68.652,-2.78812 112.97,-12.64815 -11.594,-27.14096 -31.784,-119.457075 -50.124,-126.49831 -21.065,-8.07671 -48.73,24.543074 -64,24.544609 -13.6,0.0015 -37.05,-25.87462 -56.883,-25.829365 z m 24.883,37.37837 c 11.53,31.064266 9.107,57.314726 0,73.633826 -9.107,16.3191 -32,8.61746 -32,0 25.333,-5.31314 26.21,-27.22917 32,-73.633826 z m 64,0 c 5.79,46.404656 6.667,68.320686 32,73.633826 0,8.61746 -22.893,16.3191 -32,0 -9.107,-16.3191 -11.53,-42.56956 0,-73.633826 z M 47.482806,155.50043 c -17.5,0.30681 -24.138,13.67596 -14.79,31.35038 11.088,23.27519 58.972,74.2275 112.000004,73.63382 24.103,-0.26999 31.438,-11.87575 112,-12.2723 80.562,-0.39655 87.88,12.00231 112,12.2723 53.017,0.59368 100.907,-50.35863 112,-73.63382 13.006,-24.59524 -4.934,-40.84377 -40.016,-25.18891 -21.85,9.14747 -44.06,13.72811 -65.984,18.77663 -0.02,0 -0.044,0.0184 -0.064,0.0184 v -0.005 c -45.8,10.55112 -87.924,13.4121 -116.754,13.51104 -28.83,0.0997 -72.027,-2.57488 -119.145,-13.45965 -21.897,-5.07613 -44.090004,-9.65677 -66.027004,-18.84182 -9.866,-4.40269 -18.374,-6.28188 -25.22,-6.16147 z"
       fill="#000000"
       fill-opacity="1"
       id="path838"
       style="stroke-width:0.875796" />
  </g>
</svg>
